<?xml version="1.0" standalone="no"?>
<!DOCTYPE svg PUBLIC "-//W3C//DTD SVG 20010904//EN"
 "http://www.w3.org/TR/2001/REC-SVG-20010904/DTD/svg10.dtd">
<svg version="1.0" xmlns="http://www.w3.org/2000/svg"
 width="900.000000pt" height="894.000000pt" viewBox="0 0 900.000000 894.000000"
 preserveAspectRatio="xMidYMid meet">

<g transform="translate(0.000000,894.000000) scale(0.100000,-0.100000)"
fill="#000000" stroke="none">
<path d="M3461 7094 c14 -16 34 -41 45 -56 20 -28 335 -419 344 -428 23 -21
290 -362 290 -370 0 -6 -73 -101 -162 -211 -90 -110 -174 -216 -188 -234 -14
-18 -96 -121 -182 -228 -87 -107 -158 -197 -158 -200 0 -3 30 5 68 17 118 41
285 97 347 116 64 20 229 75 360 120 129 45 295 100 360 120 69 22 475 157
585 196 41 14 102 34 135 44 63 19 223 73 360 120 144 50 299 101 360 120 36
10 54 20 45 24 -8 3 -598 200 -1310 437 -712 237 -1302 434 -1310 437 -8 3 -4
-8 11 -24z"/>
<path d="M6677 4893 c-4 -3 -7 -145 -7 -314 l0 -307 -52 20 c-78 31 -258 37
-324 12 -231 -86 -364 -323 -364 -643 0 -310 100 -536 275 -621 39 -19 71 -25
141 -28 135 -6 231 26 342 116 l43 34 39 -40 c54 -54 132 -92 191 -92 43 0 51
4 78 37 17 20 42 61 56 90 l25 53 -33 46 -32 46 -5 736 -5 737 -27 47 c-37 62
-84 78 -228 78 -59 0 -110 -3 -113 -7z m-67 -883 l60 -30 0 -283 0 -283 -33
-32 c-38 -36 -103 -62 -159 -62 -33 0 -47 7 -78 38 -57 56 -65 97 -64 312 0
162 3 192 21 241 25 67 47 97 88 115 49 22 100 17 165 -16z"/>
<path d="M1092 4784 c-35 -7 -103 -34 -152 -60 -119 -61 -187 -130 -243 -243
l-42 -86 1 -120 c0 -109 3 -126 27 -178 33 -70 110 -154 181 -198 28 -17 62
-39 76 -48 28 -19 103 -52 275 -122 148 -61 207 -99 235 -157 44 -87 4 -199
-81 -229 -49 -17 -187 -16 -277 3 -79 16 -213 67 -291 110 -24 13 -51 22 -60
19 -17 -6 -76 -79 -98 -122 -17 -33 -43 -122 -43 -148 0 -16 20 -30 93 -66 50
-26 110 -52 132 -59 22 -7 45 -16 50 -20 6 -4 46 -15 90 -26 63 -15 117 -19
260 -19 213 0 234 4 390 76 81 37 188 138 223 210 57 119 69 290 28 404 -29
80 -63 131 -136 202 -62 60 -145 106 -340 187 -279 115 -330 152 -330 241 0
82 67 141 172 152 95 9 328 -44 452 -103 l38 -19 30 35 c42 49 89 154 95 215
5 48 4 51 -23 64 -60 28 -262 93 -334 107 -94 18 -313 17 -398 -2z"/>
<path d="M2682 4326 c-57 -15 -202 -93 -209 -113 -8 -20 -16 -16 -70 36 -59
56 -117 75 -218 69 l-60 -3 0 -905 0 -905 110 -3 c128 -4 171 6 213 49 43 44
52 98 52 324 0 107 1 195 3 195 1 0 30 -10 62 -22 49 -18 81 -23 171 -23 108
0 112 1 188 38 102 51 174 123 228 230 60 119 79 199 85 357 7 177 -19 326
-77 445 -42 85 -67 117 -127 162 -21 15 -40 31 -43 35 -26 34 -222 56 -308 34z
m88 -331 c54 -51 65 -107 65 -315 -1 -165 -3 -191 -23 -245 -13 -37 -35 -73
-57 -92 -30 -29 -42 -33 -90 -33 -38 0 -71 8 -110 26 l-55 26 0 289 0 288 43
34 c54 44 91 57 150 53 36 -2 55 -10 77 -31z"/>
<path d="M3880 4333 c-114 -20 -231 -74 -295 -137 -69 -67 -129 -185 -155
-304 -24 -107 -26 -310 -6 -428 42 -235 170 -386 371 -439 76 -19 271 -20 362
-1 116 25 303 106 303 132 0 17 -36 117 -54 150 -38 71 -35 70 -129 40 -167
-51 -297 -57 -376 -14 -48 26 -89 96 -98 168 l-6 50 334 2 333 3 13 60 c17 85
16 268 -2 340 -53 205 -201 341 -406 374 -64 11 -141 12 -189 4z m174 -293
c41 -25 76 -95 83 -165 5 -49 4 -55 -13 -56 -10 0 -86 -1 -169 -1 l-150 0 1
57 c2 68 34 144 72 168 39 24 136 22 176 -3z"/>
<path d="M5145 4334 c-259 -37 -420 -206 -465 -488 -16 -99 -8 -359 14 -441
42 -157 101 -242 221 -319 97 -62 141 -71 330 -71 165 1 173 2 265 34 88 30
193 82 205 100 12 20 -34 136 -83 209 -8 11 -31 7 -123 -19 -194 -56 -342 -44
-398 32 -29 38 -51 103 -51 145 l0 34 329 0 330 0 17 76 c24 111 16 284 -19
382 -24 69 -79 155 -130 203 -38 35 -131 86 -193 104 -59 17 -191 27 -249 19z
m167 -291 c38 -23 78 -101 85 -168 5 -51 5 -52 -23 -57 -23 -4 -162 -3 -301 2
-16 0 -16 48 -3 108 12 51 47 107 75 121 34 17 134 13 167 -6z"/>
<path d="M7325 4308 c-34 -11 -95 -38 -95 -41 0 -2 36 -138 81 -302 82 -302
137 -509 190 -708 37 -142 63 -179 149 -210 25 -9 65 -17 88 -17 49 0 51 -6
23 -80 -57 -149 -167 -195 -374 -156 -48 9 -92 14 -97 11 -6 -3 -21 -31 -35
-61 -28 -61 -46 -196 -27 -208 25 -15 221 -46 295 -46 195 1 337 62 446 194
33 40 106 188 136 277 14 41 46 153 71 249 25 96 55 209 66 250 19 75 107 415
173 670 43 166 44 165 -90 179 -67 7 -226 1 -251 -8 -1 -1 -5 -22 -9 -48 -4
-27 -22 -113 -41 -193 -19 -80 -41 -176 -49 -215 -8 -38 -21 -97 -29 -130 -26
-111 -48 -210 -62 -280 -8 -38 -17 -80 -19 -92 -3 -13 -11 -23 -19 -23 -9 0
-17 26 -26 78 -20 126 -40 232 -60 317 -75 319 -124 504 -140 530 -33 54 -86
75 -181 74 -46 0 -97 -5 -114 -11z"/>
<path d="M1490 2234 c-45 -20 -68 -41 -91 -86 -26 -51 -24 -91 8 -150 31 -58
81 -88 143 -88 42 0 120 33 120 50 0 14 -12 12 -36 -4 -57 -40 -143 -27 -194
30 -52 60 -38 165 29 213 40 29 128 29 163 1 24 -18 38 -18 38 1 0 15 -79 49
-112 49 -18 -1 -49 -8 -68 -16z"/>
<path d="M2102 2236 c-64 -29 -104 -90 -104 -156 1 -70 31 -119 94 -151 119
-61 260 34 245 164 -7 58 -24 86 -71 122 -42 32 -117 42 -164 21z m138 -31
c48 -25 70 -66 70 -129 0 -48 -4 -60 -31 -90 -57 -65 -154 -69 -214 -9 -37 37
-50 78 -41 128 8 39 49 93 80 105 34 14 105 11 136 -5z"/>
<path d="M2680 2130 c0 -131 9 -162 56 -199 19 -15 41 -21 77 -21 44 0 53 4
88 39 l39 39 0 131 c0 73 -4 131 -9 131 -5 0 -11 -58 -13 -130 -3 -126 -4
-130 -31 -157 -24 -24 -35 -28 -79 -26 -43 1 -57 6 -75 28 -21 24 -23 35 -23
156 0 108 -2 129 -15 129 -13 0 -15 -20 -15 -120z"/>
<path d="M3280 2081 c1 -140 4 -171 16 -171 10 0 14 15 14 60 l0 60 55 0 c45
0 56 -4 65 -21 7 -11 18 -28 25 -37 8 -9 23 -28 34 -42 10 -14 23 -21 27 -17
5 4 4 11 -1 15 -13 9 -65 89 -65 99 0 5 13 15 29 25 40 22 59 83 40 123 -26
53 -62 70 -155 74 l-85 3 1 -171z m201 110 c27 -34 25 -82 -6 -111 -21 -20
-39 -25 -95 -28 l-70 -4 0 87 0 87 76 -4 c65 -3 79 -7 95 -27z"/>
<path d="M4240 2080 l0 -170 111 0 c84 0 110 3 106 13 -2 8 -31 12 -95 12
l-92 0 0 63 0 62 60 0 c47 0 60 3 60 15 0 12 -13 15 -60 15 l-60 0 0 65 0 65
96 0 c72 0 95 3 92 13 -3 8 -37 13 -111 15 l-107 3 0 -171z"/>
<path d="M4800 2081 c0 -101 4 -171 10 -171 5 0 10 26 12 58 l3 57 52 3 c48 3
54 1 70 -25 35 -56 67 -93 80 -93 7 0 -5 23 -27 53 -22 28 -40 56 -40 60 0 4
13 15 29 24 27 16 51 61 51 95 0 24 -31 74 -54 88 -11 7 -57 15 -103 18 l-83
5 0 -172z m186 116 c33 -28 35 -77 6 -116 -18 -24 -25 -26 -93 -26 l-74 0 -3
83 -3 82 70 0 c59 0 74 -4 97 -23z"/>
<path d="M5413 2230 c-18 -11 -35 -31 -39 -46 -12 -46 14 -76 95 -111 41 -17
78 -37 82 -45 16 -25 9 -57 -17 -77 -34 -27 -80 -27 -123 0 -33 20 -49 20 -37
0 12 -19 69 -41 106 -41 39 0 82 26 100 61 8 14 7 28 -5 53 -13 27 -29 39 -73
57 -85 34 -102 47 -102 79 0 16 7 36 16 44 20 20 94 21 120 1 24 -18 34 -19
34 -2 0 18 -57 47 -93 47 -18 0 -47 -9 -64 -20z"/>
<path d="M6310 2080 l0 -170 101 0 c76 0 100 3 96 13 -3 8 -30 12 -88 12 l-84
0 -3 158 c-4 217 -22 207 -22 -13z"/>
<path d="M6845 2220 c-7 -32 -5 -276 3 -297 3 -9 33 -13 104 -13 75 0 99 3 96
13 -3 8 -33 13 -91 15 l-87 3 0 154 c0 146 -10 195 -25 125z"/>
<path d="M7474 2231 c-133 -60 -137 -238 -7 -305 45 -23 114 -21 157 5 37 21
44 33 26 44 -5 3 -10 2 -10 -3 0 -6 -19 -17 -42 -27 -60 -24 -113 -12 -160 35
-35 35 -38 42 -38 95 0 64 22 105 70 130 38 20 104 19 146 -1 19 -9 38 -14 41
-10 16 15 -73 56 -122 56 -11 0 -39 -9 -61 -19z"/>
<path d="M3866 2224 c-8 -20 -8 -262 0 -291 16 -58 24 -9 24 142 0 150 -7 193
-24 149z"/>
</g>
</svg>
